<svg width="24" height="24" viewBox="0 0 24 24" fill="none" xmlns="http://www.w3.org/2000/svg">
<path d="M12.0001 21.75C10.5218 21.7538 9.06233 21.4181 7.73413 20.769C6.21891 21.5061 4.54049 21.8438 2.85813 21.75C2.57913 21.75 2.28013 21.744 1.97113 21.732C1.83329 21.7277 1.6994 21.685 1.58455 21.6087C1.4697 21.5324 1.37846 21.4254 1.32113 21.3C1.26153 21.1758 1.23791 21.0374 1.25293 20.9004C1.26796 20.7634 1.32102 20.6334 1.40613 20.525C2.33602 19.4091 3.03978 18.1229 3.47813 16.738C2.57412 15.1094 2.15536 13.2559 2.27135 11.3969C2.38735 9.53775 3.03325 7.75074 4.13269 6.2471C5.23212 4.74346 6.73912 3.58607 8.4755 2.91177C10.2119 2.23747 12.105 2.07447 13.9311 2.44203C13.6404 2.87418 13.4128 3.3456 13.2551 3.84203C11.7071 3.60369 10.1232 3.81086 8.68848 4.4393C7.2538 5.06775 6.0276 6.09153 5.15317 7.39101C4.27874 8.69049 3.7922 10.212 3.7504 11.7777C3.70861 13.3435 4.11328 14.8887 4.91713 16.233C5.01352 16.3936 5.04634 16.5845 5.00913 16.768C4.71184 18.0131 4.18261 19.191 3.44913 20.24C4.78435 20.2845 6.10562 19.9566 7.26513 19.293C7.39128 19.2042 7.54185 19.1567 7.69613 19.157C7.82234 19.1574 7.94646 19.1893 8.05713 19.25C9.40767 19.9839 10.9363 20.3261 12.4708 20.238C14.0054 20.1499 15.4848 19.6351 16.7425 18.7516C18.0003 17.8681 18.9863 16.6509 19.5896 15.2372C20.1929 13.8235 20.3894 12.2694 20.1571 10.75C20.6536 10.5924 21.125 10.3648 21.5571 10.074C21.8414 11.4891 21.808 12.9497 21.4595 14.3503C21.111 15.751 20.4561 17.0569 19.5419 18.1738C18.6276 19.2907 17.477 20.1908 16.1728 20.8093C14.8686 21.4277 13.4435 21.749 12.0001 21.75ZM15.0001 14.75H8.00013C7.80122 14.75 7.61045 14.671 7.4698 14.5304C7.32915 14.3897 7.25013 14.1989 7.25013 14C7.25013 13.8011 7.32915 13.6104 7.4698 13.4697C7.61045 13.329 7.80122 13.25 8.00013 13.25H15.0001C15.199 13.25 15.3898 13.329 15.5305 13.4697C15.6711 13.6104 15.7501 13.8011 15.7501 14C15.7501 14.1989 15.6711 14.3897 15.5305 14.5304C15.3898 14.671 15.199 14.75 15.0001 14.75ZM13.0001 10.75H8.00013C7.80122 10.75 7.61045 10.671 7.4698 10.5304C7.32915 10.3897 7.25013 10.1989 7.25013 10C7.25013 9.80112 7.32915 9.61035 7.4698 9.4697C7.61045 9.32905 7.80122 9.25003 8.00013 9.25003H13.0001C13.199 9.25003 13.3898 9.32905 13.5305 9.4697C13.6711 9.61035 13.7501 9.80112 13.7501 10C13.7501 10.1989 13.6711 10.3897 13.5305 10.5304C13.3898 10.671 13.199 10.75 13.0001 10.75ZM19.6121 8.81903C18.7673 6.82277 17.1784 5.23387 15.1821 4.38903C15.3451 3.90419 15.6116 3.4606 15.9631 3.08903C18.1655 4.07104 19.9271 5.83263 20.9091 8.03503C20.5376 8.38655 20.094 8.65304 19.6091 8.81603L19.6121 8.81903Z" fill="white"/>
<path d="M18.5 9C17.8078 9 17.1311 8.79473 16.5555 8.41015C15.9799 8.02556 15.5313 7.47894 15.2664 6.83939C15.0015 6.19985 14.9322 5.49612 15.0673 4.81719C15.2023 4.13825 15.5356 3.51461 16.0251 3.02513C16.5146 2.53564 17.1383 2.2023 17.8172 2.06725C18.4961 1.9322 19.1999 2.00152 19.8394 2.26642C20.4789 2.53133 21.0256 2.97993 21.4101 3.55551C21.7947 4.13108 22 4.80777 22 5.5C22 6.42826 21.6313 7.3185 20.9749 7.97487C20.3185 8.63125 19.4283 9 18.5 9Z" fill="#FF6359"/>
</svg>
