<svg width="24" height="24" viewBox="0 0 24 24" fill="none" xmlns="http://www.w3.org/2000/svg">
<path d="M2.25 12C2.25 10.0716 2.82183 8.18657 3.89317 6.58319C4.96452 4.97982 6.48726 3.73013 8.26884 2.99218C10.0504 2.25422 12.0108 2.06114 13.9021 2.43735C15.7934 2.81355 17.5307 3.74215 18.8943 5.10571C20.2579 6.46927 21.1865 8.20656 21.5627 10.0979C21.9389 11.9892 21.7458 13.9496 21.0078 15.7312C20.2699 17.5127 19.0202 19.0355 17.4168 20.1068C15.8134 21.1782 13.9284 21.75 12 21.75C9.41503 21.7471 6.93677 20.7189 5.10892 18.8911C3.28108 17.0632 2.25291 14.585 2.25 12V12ZM12 20.25C14.0374 20.2517 16.0029 19.4966 17.515 18.131C17.0923 17.7945 16.6103 17.5401 16.094 17.381C15.982 17.341 15.865 17.3 15.717 17.251L15.331 17.121C13.931 16.65 13.308 16.27 13.038 15.379C13.0151 15.3059 12.9968 15.2314 12.983 15.156C12.8862 14.6861 12.9343 14.1979 13.121 13.756C13.252 13.4483 13.4538 13.1759 13.71 12.961C14.0503 12.6848 14.3216 12.3332 14.5025 11.934C14.6833 11.5348 14.7688 11.099 14.752 10.661C14.7625 10.2891 14.6997 9.91886 14.5671 9.57129C14.4344 9.22373 14.2346 8.9057 13.9791 8.63537C13.7235 8.36504 13.4172 8.14771 13.0776 7.9958C12.738 7.84389 12.3719 7.76036 12 7.75C11.6265 7.75635 11.258 7.83737 10.9163 7.98831C10.5745 8.13925 10.2664 8.35705 10.0102 8.62888C9.75391 8.90071 9.55463 9.22108 9.42408 9.5711C9.29352 9.92113 9.23434 10.2937 9.25 10.667C9.23372 11.097 9.31527 11.5251 9.48849 11.919C9.66171 12.3129 9.92209 12.6624 10.25 12.941C10.4846 13.1324 10.6788 13.3687 10.821 13.636C11.0698 14.1078 11.1408 14.6533 11.021 15.173C11.0104 15.2307 10.9953 15.2876 10.976 15.343C10.739 16.22 10.129 16.597 8.788 17.055L8.343 17.205C8.17 17.264 8.035 17.311 7.906 17.359C7.38867 17.5243 6.90722 17.7859 6.487 18.13C7.99833 19.4956 9.96307 20.2512 12 20.25ZM16.25 10.667C16.2656 11.3188 16.1335 11.9658 15.8635 12.5593C15.5935 13.1528 15.1926 13.6775 14.691 14.094C14.6071 14.1622 14.5409 14.2497 14.498 14.349C14.4329 14.5168 14.4179 14.6999 14.455 14.876C14.461 14.907 14.465 14.922 14.468 14.931C14.545 15.184 14.876 15.385 15.81 15.7L16.194 15.829C16.351 15.882 16.478 15.929 16.602 15.97C17.3103 16.192 17.9678 16.5515 18.537 17.028C19.4771 15.807 20.0564 14.3471 20.2093 12.8137C20.3622 11.2804 20.0826 9.73483 19.4022 8.35223C18.7217 6.96962 17.6677 5.80522 16.3594 4.99095C15.0511 4.17668 13.541 3.7451 12 3.7451C10.459 3.7451 8.94886 4.17668 7.6406 4.99095C6.33233 5.80522 5.27827 6.96962 4.59784 8.35223C3.91741 9.73483 3.63781 11.2804 3.79072 12.8137C3.94363 14.3471 4.52293 15.807 5.463 17.028C6.02703 16.5465 6.68002 16.1802 7.385 15.95C7.529 15.897 7.676 15.85 7.86 15.783L8.303 15.634C9.166 15.334 9.473 15.15 9.547 14.887C9.547 14.893 9.547 14.882 9.554 14.854C9.5958 14.6795 9.57528 14.4959 9.496 14.335C9.43606 14.2296 9.35545 14.1375 9.259 14.064C8.77192 13.6446 8.38394 13.1224 8.123 12.535C7.86206 11.9476 7.73467 11.3096 7.75 10.667C7.73444 10.0967 7.83251 9.52907 8.0385 8.99708C8.24449 8.46509 8.55429 7.9794 8.94983 7.56831C9.34537 7.15723 9.81877 6.82896 10.3424 6.60262C10.8661 6.37629 11.4296 6.25643 12 6.25C12.5692 6.26067 13.1307 6.38341 13.6524 6.61122C14.1741 6.83902 14.6458 7.16742 15.0405 7.57764C15.4352 7.98786 15.7452 8.47185 15.9527 9.00194C16.1602 9.53204 16.2613 10.0978 16.25 10.667Z" fill="white"/>
</svg>
