<svg width="48" height="48" viewBox="0 0 48 48" fill="none" xmlns="http://www.w3.org/2000/svg">
<rect width="47.8505" height="47.8505" rx="14.7664" fill="url(#paint0_linear)"/>
<path d="M32.0113 30.7536C32.3881 30.7536 32.738 30.9151 33.061 31.2381C33.384 31.5611 33.5455 31.92 33.5455 32.3148C33.5455 32.8351 33.2405 33.3286 32.6304 33.7951C32.0382 34.2796 31.3025 34.6654 30.4233 34.9525C29.562 35.2396 28.7904 35.3832 28.1085 35.3832C26.9601 35.3832 26.0449 35.2665 25.3631 35.0333C24.6991 34.8179 24.0262 34.5129 23.3444 34.1181C22.8958 33.849 22.5279 33.6516 22.2408 33.526C21.9537 33.4183 21.6128 33.3645 21.218 33.3645C21.0027 33.3645 20.8233 33.3914 20.6797 33.4452C20.5362 33.4991 20.3477 33.5798 20.1145 33.6875C19.8812 33.8131 19.6659 33.9028 19.4685 33.9566C19.2711 34.0284 19.0199 34.0643 18.7148 34.0643C18.2842 34.0643 17.9074 33.8938 17.5844 33.5529C17.2793 33.2299 17.1268 32.8621 17.1268 32.4493C17.1268 31.7495 17.4408 31.283 18.0689 31.0497L20.7335 30.0538C19.3339 29.7488 18.0958 29.1477 17.0191 28.2505C15.9425 27.3353 15.1081 26.2138 14.516 24.886C13.9238 23.5581 13.6277 22.1226 13.6277 20.5794C13.6277 18.803 14.0135 17.1791 14.7851 15.7077C15.5747 14.2183 16.6603 13.043 18.042 12.1817C19.4416 11.3204 21.0117 10.8897 22.7522 10.8897C24.4928 10.8897 26.0539 11.3204 27.4356 12.1817C28.8352 13.043 29.9298 14.2183 30.7193 15.7077C31.5089 17.1791 31.9036 18.803 31.9036 20.5794C31.9036 22.1226 31.5986 23.5581 30.9885 24.886C30.3963 26.2138 29.553 27.3353 28.4584 28.2505C27.3818 29.1477 26.1436 29.7488 24.744 30.0538L23.1021 30.6729C23.5148 30.7267 23.8917 30.8254 24.2326 30.969C24.5915 31.1125 24.9952 31.3099 25.4438 31.5611C26.0001 31.8662 26.4846 32.0905 26.8973 32.234C27.31 32.3776 27.7765 32.4493 28.2969 32.4493C28.7455 32.4493 29.1313 32.3776 29.4543 32.234C29.7773 32.1084 30.0913 31.92 30.3963 31.6688C30.504 31.5791 30.6655 31.4445 30.8808 31.265C31.0962 31.1036 31.2935 30.9779 31.473 30.8882C31.6524 30.7985 31.8319 30.7536 32.0113 30.7536ZM17.1268 20.5794C17.1268 21.7817 17.3601 22.8763 17.8266 23.8632C18.3111 24.8501 18.975 25.6307 19.8184 26.2049C20.6797 26.7611 21.6577 27.0393 22.7522 27.0393C23.8289 27.0393 24.7978 26.7521 25.6591 26.1779C26.5205 25.6037 27.1934 24.8321 27.6778 23.8632C28.1623 22.8763 28.4046 21.7817 28.4046 20.5794C28.4046 19.3772 28.1623 18.2916 27.6778 17.3226C27.1934 16.3357 26.5205 15.5551 25.6591 14.9809C24.7978 14.4067 23.8289 14.1196 22.7522 14.1196C21.6577 14.1196 20.6797 14.4067 19.8184 14.9809C18.975 15.5372 18.3111 16.3088 17.8266 17.2957C17.3601 18.2826 17.1268 19.3772 17.1268 20.5794Z" fill="white"/>
<defs>
<linearGradient id="paint0_linear" x1="23.9252" y1="0" x2="23.9252" y2="47.8505" gradientUnits="userSpaceOnUse">
<stop stop-color="#5100FD"/>
<stop offset="1" stop-color="#5100FD" stop-opacity="0.83"/>
</linearGradient>
</defs>
</svg>
