<svg width="205" height="48" viewBox="0 0 205 48" fill="none" xmlns="http://www.w3.org/2000/svg">
<rect width="47.8505" height="47.8505" rx="14.7664" fill="url(#paint0_linear)"/>
<path d="M32.0113 30.7536C32.3881 30.7536 32.738 30.9151 33.061 31.2381C33.384 31.5611 33.5455 31.92 33.5455 32.3148C33.5455 32.8351 33.2405 33.3286 32.6304 33.7951C32.0382 34.2796 31.3025 34.6654 30.4233 34.9525C29.562 35.2396 28.7904 35.3832 28.1085 35.3832C26.9601 35.3832 26.0449 35.2665 25.3631 35.0333C24.6991 34.8179 24.0262 34.5129 23.3444 34.1181C22.8958 33.849 22.5279 33.6516 22.2408 33.526C21.9537 33.4183 21.6128 33.3645 21.218 33.3645C21.0027 33.3645 20.8233 33.3914 20.6797 33.4452C20.5362 33.4991 20.3477 33.5798 20.1145 33.6875C19.8812 33.8131 19.6659 33.9028 19.4685 33.9566C19.2711 34.0284 19.0199 34.0643 18.7148 34.0643C18.2842 34.0643 17.9074 33.8938 17.5844 33.5529C17.2793 33.2299 17.1268 32.8621 17.1268 32.4493C17.1268 31.7495 17.4408 31.283 18.0689 31.0497L20.7335 30.0538C19.3339 29.7488 18.0958 29.1477 17.0191 28.2505C15.9425 27.3353 15.1081 26.2138 14.516 24.886C13.9238 23.5581 13.6277 22.1226 13.6277 20.5794C13.6277 18.803 14.0135 17.1791 14.7851 15.7077C15.5747 14.2183 16.6603 13.043 18.042 12.1817C19.4416 11.3204 21.0117 10.8897 22.7522 10.8897C24.4928 10.8897 26.0539 11.3204 27.4356 12.1817C28.8352 13.043 29.9298 14.2183 30.7193 15.7077C31.5089 17.1791 31.9036 18.803 31.9036 20.5794C31.9036 22.1226 31.5986 23.5581 30.9885 24.886C30.3963 26.2138 29.553 27.3353 28.4584 28.2505C27.3818 29.1477 26.1436 29.7488 24.744 30.0538L23.1021 30.6729C23.5148 30.7267 23.8917 30.8254 24.2326 30.969C24.5915 31.1125 24.9952 31.3099 25.4438 31.5611C26.0001 31.8662 26.4846 32.0905 26.8973 32.234C27.31 32.3776 27.7765 32.4493 28.2969 32.4493C28.7455 32.4493 29.1313 32.3776 29.4543 32.234C29.7773 32.1084 30.0913 31.92 30.3963 31.6688C30.504 31.5791 30.6655 31.4445 30.8808 31.265C31.0962 31.1036 31.2935 30.9779 31.473 30.8882C31.6524 30.7985 31.8319 30.7536 32.0113 30.7536ZM17.1268 20.5794C17.1268 21.7817 17.3601 22.8763 17.8266 23.8632C18.3111 24.8501 18.975 25.6307 19.8184 26.2049C20.6797 26.7611 21.6577 27.0393 22.7522 27.0393C23.8289 27.0393 24.7978 26.7521 25.6591 26.1779C26.5205 25.6037 27.1934 24.8321 27.6778 23.8632C28.1623 22.8763 28.4046 21.7817 28.4046 20.5794C28.4046 19.3772 28.1623 18.2916 27.6778 17.3226C27.1934 16.3357 26.5205 15.5551 25.6591 14.9809C24.7978 14.4067 23.8289 14.1196 22.7522 14.1196C21.6577 14.1196 20.6797 14.4067 19.8184 14.9809C18.975 15.5372 18.3111 16.3088 17.8266 17.2957C17.3601 18.2826 17.1268 19.3772 17.1268 20.5794Z" fill="white"/>
<path d="M79.7955 29.9006C79.8852 30.1338 79.9301 30.3492 79.9301 30.5465C79.9301 31.0131 79.7776 31.3989 79.4725 31.7039C79.1675 31.991 78.8176 32.1346 78.4228 32.1346C78.0998 32.1346 77.8037 32.0359 77.5346 31.8385C77.2834 31.6411 77.086 31.372 76.9424 31.031L75.5428 27.7742H67.5219L66.1222 31.0579C65.9966 31.3989 65.7993 31.668 65.5301 31.8654C65.2789 32.0449 65.0007 32.1346 64.6957 32.1346C64.2292 32.1346 63.8703 32.009 63.6191 31.7578C63.3858 31.5065 63.2692 31.1656 63.2692 30.735C63.2692 30.5735 63.2961 30.403 63.3499 30.2236L70.052 14.1278C70.1955 13.769 70.4108 13.4908 70.6979 13.2935C70.985 13.0961 71.308 13.0153 71.6669 13.0512C71.9899 13.0512 72.286 13.1499 72.5551 13.3473C72.8422 13.5267 73.0486 13.7869 73.1742 14.1278L79.7955 29.9006ZM74.2239 24.6789L71.5054 18.3806L68.8407 24.6789H74.2239ZM116.281 13.105C116.73 13.105 117.116 13.2576 117.439 13.5626C117.78 13.8677 117.95 14.2355 117.95 14.6662C117.95 14.8994 117.896 15.1417 117.789 15.3929L111.141 30.9503C110.979 31.2912 110.755 31.5514 110.468 31.7308C110.181 31.9103 109.875 32 109.552 32C109.247 31.9821 108.96 31.8923 108.691 31.7308C108.44 31.5514 108.243 31.3002 108.099 30.9772L101.451 15.366C101.361 15.1865 101.316 14.9622 101.316 14.6931C101.316 14.2086 101.496 13.8228 101.855 13.5357C102.213 13.2307 102.581 13.0781 102.958 13.0781C103.263 13.0781 103.55 13.1679 103.819 13.3473C104.089 13.5267 104.295 13.7869 104.438 14.1278L109.849 26.8591L114.801 14.1278C114.945 13.8049 115.151 13.5536 115.42 13.3742C115.689 13.1948 115.976 13.105 116.281 13.105ZM134.626 29.9006C134.716 30.1338 134.761 30.3492 134.761 30.5465C134.761 31.0131 134.608 31.3989 134.303 31.7039C133.998 31.991 133.648 32.1346 133.253 32.1346C132.93 32.1346 132.634 32.0359 132.365 31.8385C132.114 31.6411 131.917 31.372 131.773 31.031L130.373 27.7742H122.352L120.953 31.0579C120.827 31.3989 120.63 31.668 120.361 31.8654C120.109 32.0449 119.831 32.1346 119.526 32.1346C119.06 32.1346 118.701 32.009 118.45 31.7578C118.216 31.5065 118.1 31.1656 118.1 30.735C118.1 30.5735 118.127 30.403 118.181 30.2236L124.883 14.1278C125.026 13.769 125.241 13.4908 125.529 13.2935C125.816 13.0961 126.139 13.0153 126.498 13.0512C126.821 13.0512 127.117 13.1499 127.386 13.3473C127.673 13.5267 127.879 13.7869 128.005 14.1278L134.626 29.9006ZM129.055 24.6789L126.336 18.3806L123.671 24.6789H129.055ZM151.817 29.3622C152.05 29.5058 152.229 29.6942 152.355 29.9275C152.498 30.1607 152.57 30.403 152.57 30.6542C152.57 30.9772 152.463 31.2733 152.247 31.5424C151.978 31.8654 151.565 32.0269 151.009 32.0269C150.578 32.0269 150.184 31.9282 149.825 31.7308C148.533 30.9951 147.887 29.4968 147.887 27.2359C147.887 26.5899 147.671 26.0785 147.241 25.7017C146.828 25.3249 146.227 25.1364 145.437 25.1364H140.404V30.3581C140.404 30.8426 140.27 31.2374 140 31.5424C139.749 31.8475 139.408 32 138.978 32C138.457 32 138 31.8475 137.605 31.5424C137.228 31.2194 137.04 30.8247 137.04 30.3581V14.8007C137.04 14.3342 137.192 13.9484 137.497 13.6434C137.82 13.3204 138.215 13.1589 138.682 13.1589H146.433C147.366 13.1589 148.246 13.4101 149.071 13.9125C149.897 14.415 150.551 15.1058 151.036 15.985C151.538 16.8643 151.79 17.8512 151.79 18.9458C151.79 19.843 151.547 20.7222 151.063 21.5836C150.578 22.4269 149.95 23.0998 149.179 23.6022C150.309 24.3918 150.928 25.4505 151.036 26.7783C151.09 27.0654 151.117 27.3436 151.117 27.6127C151.189 28.169 151.26 28.5727 151.332 28.8239C151.404 29.0572 151.565 29.2366 151.817 29.3622ZM146.299 22.3641C146.622 22.3641 146.936 22.2116 147.241 21.9065C147.546 21.6015 147.797 21.1978 147.994 20.6953C148.192 20.175 148.291 19.6187 148.291 19.0265C148.291 18.5241 148.192 18.0665 147.994 17.6538C147.797 17.2232 147.546 16.8822 147.241 16.631C146.936 16.3798 146.622 16.2542 146.299 16.2542H140.404V22.3641H146.299ZM158.883 30.3581C158.883 30.8247 158.712 31.2194 158.371 31.5424C158.03 31.8475 157.635 32 157.187 32C156.702 32 156.299 31.8475 155.976 31.5424C155.671 31.2194 155.518 30.8247 155.518 30.3581V14.8007C155.518 14.3342 155.68 13.9484 156.003 13.6434C156.326 13.3204 156.738 13.1589 157.241 13.1589C157.689 13.1589 158.075 13.3204 158.398 13.6434C158.721 13.9484 158.883 14.3342 158.883 14.8007V30.3581ZM176.308 13.132C176.774 13.132 177.151 13.2845 177.438 13.5895C177.725 13.8946 177.869 14.2893 177.869 14.7738V24.5174C177.869 26.0067 177.555 27.3256 176.927 28.474C176.299 29.6224 175.419 30.5196 174.289 31.1656C173.159 31.8116 171.867 32.1346 170.413 32.1346C168.96 32.1346 167.659 31.8116 166.51 31.1656C165.38 30.5196 164.501 29.6224 163.873 28.474C163.245 27.3256 162.93 26.0067 162.93 24.5174V14.7738C162.93 14.3073 163.092 13.9215 163.415 13.6164C163.738 13.2935 164.151 13.132 164.653 13.132C165.084 13.132 165.461 13.2935 165.784 13.6164C166.107 13.9215 166.268 14.3073 166.268 14.7738V24.5174C166.268 25.3787 166.456 26.1503 166.833 26.8321C167.21 27.4961 167.713 28.0075 168.341 28.3664C168.987 28.7252 169.677 28.9047 170.413 28.9047C171.185 28.9047 171.902 28.7252 172.566 28.3664C173.248 28.0075 173.787 27.4961 174.181 26.8321C174.594 26.1503 174.8 25.3787 174.8 24.5174V14.7738C174.8 14.2893 174.935 13.8946 175.204 13.5895C175.473 13.2845 175.841 13.132 176.308 13.132ZM198.246 13.132C198.695 13.132 199.081 13.2935 199.404 13.6164C199.745 13.9215 199.915 14.3073 199.915 14.7738V30.3581C199.915 30.8247 199.763 31.2194 199.457 31.5424C199.152 31.8475 198.749 32 198.246 32C197.744 32 197.331 31.8475 197.008 31.5424C196.703 31.2374 196.551 30.8426 196.551 30.3581V19.511L192.109 26.2938C191.93 26.5092 191.724 26.6886 191.49 26.8321C191.257 26.9578 191.015 27.0116 190.764 26.9936C190.53 27.0116 190.297 26.9578 190.064 26.8321C189.831 26.6886 189.624 26.5092 189.445 26.2938L185.004 19.2688V30.3581C185.004 30.8426 184.86 31.2374 184.573 31.5424C184.286 31.8475 183.909 32 183.442 32C182.994 32 182.626 31.8475 182.339 31.5424C182.052 31.2194 181.908 30.8247 181.908 30.3581V14.7738C181.908 14.3252 182.07 13.9394 182.393 13.6164C182.734 13.2935 183.137 13.132 183.604 13.132C183.873 13.132 184.142 13.2037 184.411 13.3473C184.681 13.4729 184.887 13.6434 185.031 13.8587L190.898 22.8755L196.927 13.8587C197.071 13.6434 197.259 13.4729 197.493 13.3473C197.744 13.2037 197.995 13.132 198.246 13.132Z" fill="white"/>
<path d="M99.6506 32.7536C100.027 32.7536 100.377 32.9151 100.7 33.2381C101.023 33.5611 101.185 33.92 101.185 34.3148C101.185 34.8351 100.88 35.3286 100.27 35.7951C99.6775 36.2796 98.9418 36.6654 98.0626 36.9525C97.2013 37.2396 96.4297 37.3832 95.7478 37.3832C94.5994 37.3832 93.6843 37.2665 93.0024 37.0333C92.3385 36.8179 91.6656 36.5129 90.9837 36.1181C90.5351 35.849 90.1672 35.6516 89.8801 35.526C89.593 35.4183 89.2521 35.3645 88.8573 35.3645C88.642 35.3645 88.4626 35.3914 88.319 35.4452C88.1755 35.4991 87.9871 35.5798 87.7538 35.6875C87.5205 35.8131 87.3052 35.9028 87.1078 35.9566C86.9104 36.0284 86.6592 36.0643 86.3542 36.0643C85.9235 36.0643 85.5467 35.8938 85.2237 35.5529C84.9186 35.2299 84.7661 34.8621 84.7661 34.4493C84.7661 33.7495 85.0801 33.283 85.7082 33.0497L88.3729 32.0538C86.9732 31.7488 85.7351 31.1477 84.6585 30.2505C83.5818 29.3353 82.7474 28.2138 82.1553 26.886C81.5631 25.5581 81.2671 24.1226 81.2671 22.5794C81.2671 20.803 81.6529 19.1791 82.4244 17.7077C83.214 16.2183 84.2996 15.043 85.6813 14.1817C87.0809 13.3204 88.651 12.8897 90.3915 12.8897C92.1321 12.8897 93.6932 13.3204 95.0749 14.1817C96.4745 15.043 97.5691 16.2183 98.3586 17.7077C99.1482 19.1791 99.5429 20.803 99.5429 22.5794C99.5429 24.1226 99.2379 25.5581 98.6278 26.886C98.0357 28.2138 97.1923 29.3353 96.0977 30.2505C95.0211 31.1477 93.7829 31.7488 92.3833 32.0538L90.7414 32.6729C91.1542 32.7267 91.531 32.8254 91.8719 32.969C92.2308 33.1125 92.6345 33.3099 93.0831 33.5611C93.6394 33.8662 94.1239 34.0905 94.5366 34.234C94.9493 34.3776 95.4158 34.4493 95.9362 34.4493C96.3848 34.4493 96.7706 34.3776 97.0936 34.234C97.4166 34.1084 97.7306 33.92 98.0357 33.6688C98.1433 33.5791 98.3048 33.4445 98.5201 33.265C98.7355 33.1036 98.9329 32.9779 99.1123 32.8882C99.2917 32.7985 99.4712 32.7536 99.6506 32.7536ZM84.7661 22.5794C84.7661 23.7817 84.9994 24.8763 85.4659 25.8632C85.9504 26.8501 86.6143 27.6307 87.4577 28.2049C88.319 28.7611 89.297 29.0393 90.3915 29.0393C91.4682 29.0393 92.4371 28.7521 93.2985 28.1779C94.1598 27.6037 94.8327 26.8321 95.3172 25.8632C95.8016 24.8763 96.0439 23.7817 96.0439 22.5794C96.0439 21.3772 95.8016 20.2916 95.3172 19.3226C94.8327 18.3357 94.1598 17.5551 93.2985 16.9809C92.4371 16.4067 91.4682 16.1196 90.3915 16.1196C89.297 16.1196 88.319 16.4067 87.4577 16.9809C86.6143 17.5372 85.9504 18.3088 85.4659 19.2957C84.9994 20.2826 84.7661 21.3772 84.7661 22.5794Z" fill="#7B36EB"/>
<defs>
<linearGradient id="paint0_linear" x1="23.9252" y1="0" x2="23.9252" y2="47.8505" gradientUnits="userSpaceOnUse">
<stop stop-color="#5100FD"/>
<stop offset="1" stop-color="#5100FD" stop-opacity="0.83"/>
</linearGradient>
</defs>
</svg>
